<svg height="512" viewBox="0 0 58 58" width="512" xmlns="http://www.w3.org/2000/svg"><g id="Page-1" fill="none" fill-rule="evenodd"><g id="060---Album" fill-rule="nonzero"><path id="Shape" d="m58 5v49c0 .5522847-.4477153 1-1 1h-20.5c-.8284271 0-1.5.6715729-1.5 1.5s-.6715729 1.5-1.5 1.5h-9c-.8284271 0-1.5-.6715729-1.5-1.5s-.6715729-1.5-1.5-1.5h-20.5c-.55228475 0-1-.4477153-1-1v-49c0-.55228475.44771525-1 1-1h56c.5522847 0 1 .44771525 1 1z" fill="#cb8252"/><path id="Shape" d="m56 4v46c-.0049422 1.6548028-1.3451972 2.9950578-3 3h-48c-1.6548028-.0049422-2.9950578-1.3451972-3-3v-46z" fill="#a56a43"/><path id="Shape" d="m29 4v47h-24c-.55228475 0-1-.4477153-1-1v-49c0-.55228475.44771525-1 1-1h20c2.209139 0 4 1.790861 4 4z" fill="#d1d4d1"/><path id="Shape" d="m27 4v47h-22c-.55228475 0-1-.4477153-1-1v-49c0-.55228475.44771525-1 1-1h18c2.209139 0 4 1.790861 4 4z" fill="#ecf0f1"/><path id="Shape" d="m54 1v49c0 .5522847-.4477153 1-1 1h-24v-47c0-2.209139 1.790861-4 4-4h20c.5522847 0 1 .44771525 1 1z" fill="#d1d4d1"/><path id="Shape" d="m54 1v49c0 .5522847-.4477153 1-1 1h-22v-47c0-2.209139 1.790861-4 4-4h18c.5522847 0 1 .44771525 1 1z" fill="#ecf0f1"/><path id="Shape" d="m25 17v5c0 .5522847-.4477153 1-1 1h-15c-.55228475 0-1-.4477153-1-1v-5z" fill="#2980ba"/><path id="Shape" d="m25 6v9h-17v-9c0-.55228475.44771525-1 1-1h15c.5522847 0 1 .44771525 1 1z" fill="#67b9cc"/><path id="Shape" d="m25 40v5c0 .5522847-.4477153 1-1 1h-15c-.55228475 0-1-.4477153-1-1v-5z" fill="#2980ba"/><path id="Shape" d="m25 29v9h-17v-9c0-.5522847.44771525-1 1-1h15c.5522847 0 1 .4477153 1 1z" fill="#f0c419"/><path id="Shape" d="m50 17v5c0 .5522847-.4477153 1-1 1h-15c-.5522847 0-1-.4477153-1-1v-5z" fill="#2980ba"/><path id="Shape" d="m50 6v9h-17v-9c0-.55228475.4477153-1 1-1h15c.5522847 0 1 .44771525 1 1z" fill="#f0c419"/><path id="Shape" d="m50 40v5c0 .5522847-.4477153 1-1 1h-15c-.5522847 0-1-.4477153-1-1v-5z" fill="#2980ba"/><path id="Shape" d="m50 29v9h-17v-9c0-.5522847.4477153-1 1-1h15c.5522847 0 1 .4477153 1 1z" fill="#67b9cc"/><path id="Shape" d="m25 15v3h-17v-3l6-5 4 4 3-3z" fill="#35495e"/><path id="Shape" d="m25 38v3h-17v-3l6-5 4 4 3-3z" fill="#f29c1f"/><path id="Shape" d="m50 15v3h-17v-3l6-5 4 4 3-3z" fill="#f29c1f"/><path id="Shape" d="m50 38v3h-17v-3l6-5 4 4 3-3z" fill="#35495e"/></g></g></svg>