<svg id="Capa_1" enable-background="new 0 0 512 512" height="512" viewBox="0 0 512 512" width="512" xmlns="http://www.w3.org/2000/svg"><g><g><path d="m455.998 408.54c28.341-39.973 45.002-88.81 45.002-141.54 0-135.31-109.69-245-245-245s-245 109.69-245 245c0 52.73 16.661 101.567 45.002 141.54z" fill="#42c3fc"/></g><g><path d="m456 60v348.54c-44.38 62.6-117.42 103.46-200 103.46-43.6 0-84.54-11.39-120-31.36-31.72-17.84-59.05-42.55-80-72.1v-348.54l80-12 14.48-2.17 105.52-15.83 105.52 15.83z" fill="#e9efff"/></g><g><path d="m136 48v432.64c-31.72-17.84-59.05-42.55-80-72.1v-348.54z" fill="#d3dcfb"/></g><g><path d="m456 60h-400v-40c0-11.046 8.954-20 20-20h360c11.046 0 20 8.954 20 20z" fill="#47477f"/></g><g><path d="m156 0h-80c-11.046 0-20 8.954-20 20v40h80v-40c0-11.046 8.954-20 20-20z" fill="#3b3868"/></g><g><path d="m86 410v-300c0-11.046 8.954-20 20-20h300c11.046 0 20 8.954 20 20v300c0 11.046-8.954 20-20 20h-300c-11.046 0-20-8.954-20-20z" fill="#ff4155"/></g><g><path d="m166 410v-300c0-11.046 8.954-20 20-20h-80c-11.046 0-20 8.954-20 20v300c0 11.046 8.954 20 20 20h80c-11.046 0-20-8.954-20-20z" fill="#e80054"/></g><g><g><g><g><path d="m212.53 452.122c-9.135-4.06-16.53 4.205-16.53 4.205s-7.395-8.265-16.53-4.205-9.135 17.545-1.015 26.535c5.619 6.221 11.863 10.012 15.176 11.757 1.484.781 3.254.781 4.737 0 3.313-1.745 9.557-5.536 15.176-11.757 8.121-8.99 8.121-22.475-1.014-26.535z" fill="#8ae1ff"/></g></g><g><path d="m196 456.327s-7.395-8.265-16.53-4.205-9.135 17.545-1.015 26.535c5.619 6.221 11.863 10.012 15.176 11.757 1.484.781 3.254.781 4.737 0 .663-.349 1.444-.781 2.313-1.297-11.871-8.567-10.641-27.254-4.681-32.79z" fill="#42c3fc"/></g></g><g><g><g><path d="m279.514 471c0 10.984-8.741 19.85-19.724 19.998-2.685.036-5.251-.458-7.599-1.383-1.369-.539-2.886-.567-4.278-.093l-3.277 1.115c-2.946 1.002-5.76-1.812-4.758-4.758l1.115-3.277c.474-1.393.446-2.91-.093-4.278-.925-2.348-1.419-4.914-1.383-7.599.146-10.983 9.013-19.725 19.997-19.725 11.045 0 20 8.954 20 20z" fill="#8ae1ff"/></g></g><g><path d="m259.514 471c0-7.398 4.028-13.843 10-17.302-2.944-1.706-6.353-2.698-10-2.698-10.984 0-19.85 8.742-19.998 19.725-.036 2.685.458 5.25 1.383 7.599.539 1.369.567 2.886.093 4.279l-1.115 3.277c-1.002 2.946 1.812 5.76 4.758 4.758l3.277-1.115c1.393-.474 2.91-.446 4.278.093 2.349.925 4.914 1.419 7.6 1.383 3.562-.048 6.88-1.024 9.748-2.681-5.986-3.457-10.024-9.91-10.024-17.318z" fill="#42c3fc"/></g></g><g><g><path d="m322.844 482.67h-10c-2.761 0-5-2.239-5-5v-10h15z" fill="#1aa9e8"/></g><g><g><path d="m333.118 451.104-29.277 5.759c-4.851.954-5.932 7.409-1.657 9.892l9.062 5.263c3.006 1.746 5.505 4.245 7.25 7.25l5.263 9.062c2.483 4.275 8.937 3.194 9.892-1.657l5.759-29.277c.735-3.738-2.554-7.028-6.292-6.292z" fill="#8ae1ff"/></g></g><g><path d="m318.497 479.267 5.263 9.062c2.483 4.275 8.938 3.194 9.892-1.657l5.759-29.277c.368-1.869-.271-3.626-1.469-4.823l-22.597 22.597c1.218 1.219 2.279 2.596 3.152 4.098z" fill="#42c3fc"/></g></g></g><g><g><path d="m165.513 337.331 90.487 26.513 90.487-26.513c14.643 0 26.513-11.87 26.513-26.513 0-14.643-11.87-26.513-26.513-26.513h-180.974c-14.643 0-26.513 11.87-26.513 26.513 0 14.643 11.87 26.513 26.513 26.513z" fill="#ac7752"/></g><g><path d="m218.539 284.305h-53.026c-14.643 0-26.513 11.87-26.513 26.513 0 14.643 11.87 26.513 26.513 26.513l53.026 15.537v-15.537c-14.643 0-26.513-11.87-26.513-26.513 0-14.643 11.87-26.513 26.513-26.513z" fill="#9b6642"/></g><g><path d="m152.513 390.357h206.974c14.643 0 26.513-11.87 26.513-26.513 0-14.643-11.87-26.513-26.513-26.513h-206.974c-14.643 0-26.513 11.87-26.513 26.513 0 14.642 11.87 26.513 26.513 26.513z" fill="#ffc839"/></g><g><path d="m179.026 363.844c0-14.643 11.87-26.513 26.513-26.513h-53.026c-14.643 0-26.513 11.87-26.513 26.513 0 14.643 11.87 26.513 26.513 26.513h53.026c-14.643 0-26.513-11.871-26.513-26.513z" fill="#ffb332"/></g><g><g><path d="m156.7 287.207c.113-.055.225-.111.338-.168 5.577-2.816 12.344-1.286 16.457 3.417 5.163 5.903 12.748 9.632 21.208 9.632 8.459 0 16.045-3.729 21.208-9.632 4.113-4.703 10.88-6.232 16.457-3.417.111.056.222.111.333.165 10.633 5.195 21.761-6.302 16.234-16.766-8.048-15.235-24.246-34.906-54.236-34.906-29.993 0-46.187 19.674-54.231 34.91-5.528 10.465 5.599 21.958 16.232 16.765z" fill="#65d33c"/></g></g><g><g><path d="m355.3 287.207c-.113-.055-.225-.111-.338-.168-5.577-2.816-12.344-1.286-16.457 3.417-5.163 5.903-12.748 9.632-21.208 9.632s-16.045-3.729-21.208-9.632c-4.113-4.703-10.88-6.232-16.457-3.417-.111.056-.222.111-.333.165-10.633 5.195-21.761-6.302-16.234-16.766 8.048-15.235 24.246-34.906 54.236-34.906 29.993 0 46.187 19.674 54.231 34.91 5.528 10.465-5.599 21.958-16.232 16.765z" fill="#65d33c"/></g></g><g><path d="m294 306.707c-.113-.055-.225-.111-.338-.168-5.577-2.816-12.344-1.286-16.457 3.417-5.163 5.903-12.748 9.632-21.208 9.632-8.459 0-16.045-3.729-21.208-9.632-4.113-4.703-10.88-6.232-16.457-3.417-.111.056-.222.111-.333.165-10.633 5.195-21.761-6.302-16.234-16.766 8.048-15.235 24.246-34.906 54.236-34.906 29.993 0 46.187 19.674 54.231 34.91 5.527 10.465-5.599 21.958-16.232 16.765z" fill="#89e56a"/></g><g><g><path d="m373 274.088h-234c-7.18 0-13-5.82-13-13v-1.445c0-71.797 58.203-130 130-130 71.797 0 130 58.203 130 130v1.445c0 7.179-5.82 13-13 13z" fill="#ffc839"/></g></g><g><path d="m179.026 261.088v-1.445c0-62.711 44.405-115.048 103.487-127.29-8.56-1.774-17.427-2.709-26.513-2.709-71.797 0-130 58.203-130 130v1.445c0 7.18 5.82 13 13 13h53.026c-7.18-.001-13-5.822-13-13.001z" fill="#ffb332"/></g></g><g><circle cx="413.5" cy="30" fill="#ff4155" r="12.5"/></g><g><path d="m413.5 30c0-4.624 2.517-8.652 6.25-10.814-1.84-1.066-3.97-1.686-6.25-1.686-6.904 0-12.5 5.596-12.5 12.5s5.596 12.5 12.5 12.5c2.28 0 4.41-.62 6.25-1.686-3.733-2.162-6.25-6.19-6.25-10.814z" fill="#e80054"/></g><g><circle cx="373.5" cy="30" fill="#ffc839" r="12.5"/></g><g><path d="m373.5 30c0-4.624 2.517-8.652 6.25-10.814-1.84-1.066-3.97-1.686-6.25-1.686-6.904 0-12.5 5.596-12.5 12.5s5.596 12.5 12.5 12.5c2.28 0 4.41-.62 6.25-1.686-3.733-2.162-6.25-6.19-6.25-10.814z" fill="#ffb332"/></g><g><path d="m253.5 42.5h-155c-6.904 0-12.5-5.596-12.5-12.5 0-6.904 5.596-12.5 12.5-12.5h155c6.904 0 12.5 5.596 12.5 12.5 0 6.904-5.596 12.5-12.5 12.5z" fill="#e9efff"/></g><g><path d="m123.5 30c0-6.904 5.596-12.5 12.5-12.5h-37.5c-6.904 0-12.5 5.596-12.5 12.5s5.596 12.5 12.5 12.5h37.5c-6.904 0-12.5-5.596-12.5-12.5z" fill="#d3dcfb"/></g></g></svg>